<svg width="40" height="36" viewBox="0 0 40 36" fill="none" xmlns="http://www.w3.org/2000/svg">
<path d="M38.894 6.21143L26.894 0.211432C26.6161 0.0723908 26.3097 0 25.999 0C25.6883 0 25.3819 0.0723908 25.104 0.211432L14 5.76543L2.894 0.211432C2.58901 0.0590265 2.25012 -0.0128781 1.90951 0.00254774C1.56891 0.0179736 1.23791 0.120218 0.947938 0.299569C0.65797 0.47892 0.418668 0.729423 0.252758 1.02729C0.0868487 1.32515 -0.000158699 1.66048 2.17302e-07 2.00143V28.0014C2.17302e-07 28.7594 0.428 29.4514 1.106 29.7914L13.106 35.7914C13.3839 35.9305 13.6903 36.0029 14.001 36.0029C14.3117 36.0029 14.6181 35.9305 14.896 35.7914L26 30.2374L37.106 35.7894C37.4101 35.9433 37.7488 36.0162 38.0893 36.0011C38.4298 35.9861 38.7606 35.8835 39.05 35.7034C39.64 35.3374 40 34.6954 40 34.0014V8.00143C40 7.24343 39.572 6.55143 38.894 6.21143ZM16 9.23743L24 5.23743V26.7654L16 30.7654V9.23743ZM4 5.23743L12 9.23743V30.7654L4 26.7654V5.23743ZM36 30.7654L28 26.7654V5.23743L36 9.23743V30.7654Z" fill="#003292"/>
</svg>
